<mxfile host="app.diagrams.net" agent="Mozilla/5.0 (Windows NT 10.0; Win64; x64) AppleWebKit/537.36 (KHTML, like Gecko) Chrome/132.0.0.0 Safari/537.36 OPR/117.0.0.0" version="26.1.1" pages="2">
  <diagram id="absPkm9BhZ3swlyt63D_" name="PÃ¡gina-1">
    <mxGraphModel dx="1653" dy="426" grid="1" gridSize="10" guides="1" tooltips="1" connect="1" arrows="1" fold="1" page="1" pageScale="1" pageWidth="827" pageHeight="1169" math="0" shadow="0">
      <root>
        <mxCell id="0" />
        <mxCell id="1" parent="0" />
        <mxCell id="YYU_4tO9jYvmmID5z-S9-1" value="" style="points=[[0,0],[0.25,0],[0.5,0],[0.75,0],[1,0],[1,0.25],[1,0.5],[1,0.75],[1,1],[0.75,1],[0.5,1],[0.25,1],[0,1],[0,0.75],[0,0.5],[0,0.25]];outlineConnect=0;gradientColor=none;html=1;whiteSpace=wrap;fontSize=12;fontStyle=0;container=1;pointerEvents=0;collapsible=0;recursiveResize=0;shape=mxgraph.aws4.group;grIcon=mxgraph.aws4.group_account;strokeColor=light-dark(#0a0f33, #ff89c2);fillColor=light-dark(#ffffff, #ededed);verticalAlign=top;align=left;spacingLeft=30;fontColor=#CD2264;dashed=0;" parent="1" vertex="1">
          <mxGeometry x="90" y="140" width="430" height="410" as="geometry" />
        </mxCell>
        <mxCell id="YYU_4tO9jYvmmID5z-S9-29" style="edgeStyle=orthogonalEdgeStyle;rounded=0;orthogonalLoop=1;jettySize=auto;html=1;endArrow=none;startFill=0;dashed=1;entryX=0.5;entryY=0;entryDx=0;entryDy=0;entryPerimeter=0;" parent="YYU_4tO9jYvmmID5z-S9-1" source="YYU_4tO9jYvmmID5z-S9-27" target="YYU_4tO9jYvmmID5z-S9-32" edge="1">
          <mxGeometry relative="1" as="geometry">
            <mxPoint x="155" y="180" as="targetPoint" />
            <Array as="points">
              <mxPoint x="229" y="160" />
              <mxPoint x="229" y="160" />
            </Array>
          </mxGeometry>
        </mxCell>
        <mxCell id="YYU_4tO9jYvmmID5z-S9-27" value="" style="sketch=0;points=[[0,0,0],[0.25,0,0],[0.5,0,0],[0.75,0,0],[1,0,0],[0,1,0],[0.25,1,0],[0.5,1,0],[0.75,1,0],[1,1,0],[0,0.25,0],[0,0.5,0],[0,0.75,0],[1,0.25,0],[1,0.5,0],[1,0.75,0]];outlineConnect=0;fontColor=#232F3E;fillColor=#DD344C;strokeColor=#ffffff;dashed=0;verticalLabelPosition=bottom;verticalAlign=top;align=center;html=1;fontSize=12;fontStyle=0;aspect=fixed;shape=mxgraph.aws4.resourceIcon;resIcon=mxgraph.aws4.waf;" parent="YYU_4tO9jYvmmID5z-S9-1" vertex="1">
          <mxGeometry x="209" y="80" width="40" height="40" as="geometry" />
        </mxCell>
        <mxCell id="YYU_4tO9jYvmmID5z-S9-38" style="edgeStyle=orthogonalEdgeStyle;rounded=0;orthogonalLoop=1;jettySize=auto;html=1;endArrow=none;startFill=0;dashed=1;" parent="YYU_4tO9jYvmmID5z-S9-1" target="YYU_4tO9jYvmmID5z-S9-36" edge="1">
          <mxGeometry relative="1" as="geometry">
            <mxPoint x="240" y="220" as="sourcePoint" />
            <Array as="points">
              <mxPoint x="240" y="252" />
            </Array>
          </mxGeometry>
        </mxCell>
        <mxCell id="YYU_4tO9jYvmmID5z-S9-32" value="CloudFront" style="sketch=0;points=[[0,0,0],[0.25,0,0],[0.5,0,0],[0.75,0,0],[1,0,0],[0,1,0],[0.25,1,0],[0.5,1,0],[0.75,1,0],[1,1,0],[0,0.25,0],[0,0.5,0],[0,0.75,0],[1,0.25,0],[1,0.5,0],[1,0.75,0]];outlineConnect=0;fontColor=#232F3E;fillColor=#8C4FFF;strokeColor=#ffffff;dashed=0;verticalLabelPosition=bottom;verticalAlign=top;align=center;html=1;fontSize=12;fontStyle=0;aspect=fixed;shape=mxgraph.aws4.resourceIcon;resIcon=mxgraph.aws4.cloudfront;" parent="YYU_4tO9jYvmmID5z-S9-1" vertex="1">
          <mxGeometry x="204" y="150" width="50" height="50" as="geometry" />
        </mxCell>
        <mxCell id="YYU_4tO9jYvmmID5z-S9-10" style="edgeStyle=orthogonalEdgeStyle;rounded=0;orthogonalLoop=1;jettySize=auto;html=1;exitX=1;exitY=0.5;exitDx=0;exitDy=0;exitPerimeter=0;" parent="YYU_4tO9jYvmmID5z-S9-1" source="YYU_4tO9jYvmmID5z-S9-32" target="YYU_4tO9jYvmmID5z-S9-31" edge="1">
          <mxGeometry relative="1" as="geometry">
            <mxPoint x="330" y="170" as="targetPoint" />
            <Array as="points">
              <mxPoint x="300" y="175" />
              <mxPoint x="300" y="175" />
            </Array>
            <mxPoint x="250" y="170" as="sourcePoint" />
          </mxGeometry>
        </mxCell>
        <mxCell id="YYU_4tO9jYvmmID5z-S9-12" style="edgeStyle=orthogonalEdgeStyle;rounded=0;orthogonalLoop=1;jettySize=auto;html=1;" parent="YYU_4tO9jYvmmID5z-S9-1" edge="1">
          <mxGeometry relative="1" as="geometry">
            <Array as="points">
              <mxPoint x="155" y="175" />
              <mxPoint x="155" y="175" />
            </Array>
            <mxPoint x="115" y="175" as="sourcePoint" />
            <mxPoint x="205" y="175" as="targetPoint" />
          </mxGeometry>
        </mxCell>
        <mxCell id="YYU_4tO9jYvmmID5z-S9-24" style="edgeStyle=orthogonalEdgeStyle;rounded=0;orthogonalLoop=1;jettySize=auto;html=1;endArrow=none;startFill=0;dashed=1;entryX=0;entryY=0.5;entryDx=0;entryDy=0;entryPerimeter=0;" parent="YYU_4tO9jYvmmID5z-S9-1" target="YYU_4tO9jYvmmID5z-S9-34" edge="1">
          <mxGeometry relative="1" as="geometry">
            <mxPoint x="85" y="235" as="sourcePoint" />
            <mxPoint x="130" y="315" as="targetPoint" />
            <Array as="points">
              <mxPoint x="85" y="313" />
            </Array>
          </mxGeometry>
        </mxCell>
        <mxCell id="YYU_4tO9jYvmmID5z-S9-25" style="edgeStyle=orthogonalEdgeStyle;rounded=0;orthogonalLoop=1;jettySize=auto;html=1;endArrow=none;startFill=0;dashed=1;exitX=1;exitY=0.5;exitDx=0;exitDy=0;exitPerimeter=0;" parent="YYU_4tO9jYvmmID5z-S9-1" source="YYU_4tO9jYvmmID5z-S9-71" edge="1">
          <mxGeometry relative="1" as="geometry">
            <mxPoint x="180" y="315" as="sourcePoint" />
            <mxPoint x="225" y="220" as="targetPoint" />
          </mxGeometry>
        </mxCell>
        <mxCell id="YYU_4tO9jYvmmID5z-S9-33" value="&lt;span style=&quot;font-size: 10px; font-weight: 700; text-wrap-mode: wrap;&quot;&gt;poc-static.com.br&lt;/span&gt;" style="sketch=0;points=[[0,0,0],[0.25,0,0],[0.5,0,0],[0.75,0,0],[1,0,0],[0,1,0],[0.25,1,0],[0.5,1,0],[0.75,1,0],[1,1,0],[0,0.25,0],[0,0.5,0],[0,0.75,0],[1,0.25,0],[1,0.5,0],[1,0.75,0]];outlineConnect=0;fontColor=#232F3E;fillColor=#8C4FFF;strokeColor=#ffffff;dashed=0;verticalLabelPosition=bottom;verticalAlign=top;align=center;html=1;fontSize=12;fontStyle=0;aspect=fixed;shape=mxgraph.aws4.resourceIcon;resIcon=mxgraph.aws4.route_53;" parent="YYU_4tO9jYvmmID5z-S9-1" vertex="1">
          <mxGeometry x="66" y="150" width="48" height="48" as="geometry" />
        </mxCell>
        <mxCell id="YYU_4tO9jYvmmID5z-S9-34" value="&lt;span style=&quot;font-size: 10px; font-weight: 700; text-wrap-mode: wrap;&quot;&gt;*static.com.br&lt;/span&gt;" style="sketch=0;points=[[0,0,0],[0.25,0,0],[0.5,0,0],[0.75,0,0],[1,0,0],[0,1,0],[0.25,1,0],[0.5,1,0],[0.75,1,0],[1,1,0],[0,0.25,0],[0,0.5,0],[0,0.75,0],[1,0.25,0],[1,0.5,0],[1,0.75,0]];outlineConnect=0;fontColor=#232F3E;fillColor=#DD344C;strokeColor=#ffffff;dashed=0;verticalLabelPosition=bottom;verticalAlign=top;align=center;html=1;fontSize=12;fontStyle=0;aspect=fixed;shape=mxgraph.aws4.resourceIcon;resIcon=mxgraph.aws4.certificate_manager_3;" parent="YYU_4tO9jYvmmID5z-S9-1" vertex="1">
          <mxGeometry x="131" y="293" width="40" height="40" as="geometry" />
        </mxCell>
        <mxCell id="YYU_4tO9jYvmmID5z-S9-39" style="edgeStyle=orthogonalEdgeStyle;rounded=0;orthogonalLoop=1;jettySize=auto;html=1;endArrow=none;startFill=0;dashed=1;" parent="YYU_4tO9jYvmmID5z-S9-1" source="YYU_4tO9jYvmmID5z-S9-36" target="YYU_4tO9jYvmmID5z-S9-31" edge="1">
          <mxGeometry relative="1" as="geometry" />
        </mxCell>
        <mxCell id="YYU_4tO9jYvmmID5z-S9-40" style="edgeStyle=orthogonalEdgeStyle;rounded=0;orthogonalLoop=1;jettySize=auto;html=1;endArrow=none;startFill=0;dashed=1;" parent="YYU_4tO9jYvmmID5z-S9-1" source="YYU_4tO9jYvmmID5z-S9-36" edge="1">
          <mxGeometry relative="1" as="geometry">
            <mxPoint x="293.68000000000006" y="180" as="targetPoint" />
          </mxGeometry>
        </mxCell>
        <mxCell id="YYU_4tO9jYvmmID5z-S9-36" value="OAC" style="sketch=0;outlineConnect=0;fontColor=#232F3E;gradientColor=none;fillColor=#7AA116;strokeColor=none;dashed=0;verticalLabelPosition=bottom;verticalAlign=top;align=center;html=1;fontSize=12;fontStyle=0;aspect=fixed;pointerEvents=1;shape=mxgraph.aws4.policy;" parent="YYU_4tO9jYvmmID5z-S9-1" vertex="1">
          <mxGeometry x="280" y="240" width="27.36" height="23.5" as="geometry" />
        </mxCell>
        <mxCell id="YYU_4tO9jYvmmID5z-S9-72" value="" style="ellipse;whiteSpace=wrap;html=1;aspect=fixed;fillColor=light-dark(#cad8d4, #1f2f1e);strokeColor=light-dark(#265427,#94BB94);" parent="YYU_4tO9jYvmmID5z-S9-1" vertex="1">
          <mxGeometry x="304.04" y="120" width="120" height="120" as="geometry" />
        </mxCell>
        <mxCell id="YYU_4tO9jYvmmID5z-S9-31" value="origin bucket" style="sketch=0;outlineConnect=0;fontColor=#232F3E;gradientColor=none;fillColor=#7AA116;strokeColor=none;dashed=0;verticalLabelPosition=bottom;verticalAlign=top;align=center;html=1;fontSize=12;fontStyle=0;aspect=fixed;pointerEvents=1;shape=mxgraph.aws4.bucket_with_objects;" parent="YYU_4tO9jYvmmID5z-S9-1" vertex="1">
          <mxGeometry x="340" y="150" width="48.08" height="50" as="geometry" />
        </mxCell>
        <mxCell id="YYU_4tO9jYvmmID5z-S9-75" value="&lt;b&gt;AWS Account&lt;/b&gt;" style="text;html=1;align=center;verticalAlign=middle;resizable=0;points=[];autosize=1;strokeColor=none;fillColor=none;" parent="YYU_4tO9jYvmmID5z-S9-1" vertex="1">
          <mxGeometry x="20" width="100" height="30" as="geometry" />
        </mxCell>
        <mxCell id="f3TaT9x-bb67A8TBEqia-1" value="" style="edgeStyle=orthogonalEdgeStyle;rounded=0;orthogonalLoop=1;jettySize=auto;html=1;endArrow=none;startFill=0;dashed=1;exitX=1;exitY=0.5;exitDx=0;exitDy=0;exitPerimeter=0;" edge="1" parent="YYU_4tO9jYvmmID5z-S9-1" source="YYU_4tO9jYvmmID5z-S9-34" target="YYU_4tO9jYvmmID5z-S9-71">
          <mxGeometry relative="1" as="geometry">
            <mxPoint x="261" y="453" as="sourcePoint" />
            <mxPoint x="315" y="360" as="targetPoint" />
          </mxGeometry>
        </mxCell>
        <mxCell id="YYU_4tO9jYvmmID5z-S9-71" value="" style="rounded=0;whiteSpace=wrap;html=1;fillStyle=solid;gradientColor=none;opacity=40;strokeColor=none;" parent="YYU_4tO9jYvmmID5z-S9-1" vertex="1">
          <mxGeometry x="40" y="60" width="264.04" height="310" as="geometry" />
        </mxCell>
        <mxCell id="YYU_4tO9jYvmmID5z-S9-65" style="edgeStyle=orthogonalEdgeStyle;rounded=0;orthogonalLoop=1;jettySize=auto;html=1;strokeColor=#265427;" parent="1" target="YYU_4tO9jYvmmID5z-S9-31" edge="1">
          <mxGeometry relative="1" as="geometry">
            <mxPoint y="310" as="sourcePoint" />
            <Array as="points">
              <mxPoint x="40" y="307" />
              <mxPoint x="40" y="180" />
              <mxPoint x="454" y="180" />
            </Array>
          </mxGeometry>
        </mxCell>
        <mxCell id="YYU_4tO9jYvmmID5z-S9-78" style="edgeStyle=orthogonalEdgeStyle;rounded=0;orthogonalLoop=1;jettySize=auto;html=1;strokeColor=light-dark(#265400, #ededed);" parent="1" source="YYU_4tO9jYvmmID5z-S9-41" target="YYU_4tO9jYvmmID5z-S9-67" edge="1">
          <mxGeometry relative="1" as="geometry">
            <Array as="points">
              <mxPoint x="-40" y="308" />
              <mxPoint x="-40" y="308" />
            </Array>
          </mxGeometry>
        </mxCell>
        <mxCell id="YYU_4tO9jYvmmID5z-S9-41" value="" style="whiteSpace=wrap;html=1;" parent="1" vertex="1">
          <mxGeometry x="-190" y="258" width="120" height="100" as="geometry" />
        </mxCell>
        <mxCell id="YYU_4tO9jYvmmID5z-S9-42" value="" style="shape=image;html=1;verticalAlign=top;verticalLabelPosition=bottom;labelBackgroundColor=#ffffff;imageAspect=0;aspect=fixed;image=https://cdn4.iconfinder.com/data/icons/ionicons/512/icon-social-github-128.png" parent="1" vertex="1">
          <mxGeometry x="-190" y="258" width="20" height="20" as="geometry" />
        </mxCell>
        <mxCell id="YYU_4tO9jYvmmID5z-S9-43" value="&lt;font style=&quot;font-size: 9px;&quot;&gt;RepositÃ³rio UsuÃ¡rio&lt;/font&gt;" style="text;html=1;align=center;verticalAlign=middle;resizable=0;points=[];autosize=1;strokeColor=none;fillColor=none;" parent="1" vertex="1">
          <mxGeometry x="-175" y="253" width="100" height="30" as="geometry" />
        </mxCell>
        <mxCell id="YYU_4tO9jYvmmID5z-S9-49" value="&lt;font style=&quot;font-size: 10px;&quot;&gt;/app&lt;/font&gt;" style="text;html=1;align=center;verticalAlign=middle;resizable=0;points=[];autosize=1;strokeColor=none;fillColor=none;" parent="1" vertex="1">
          <mxGeometry x="-170" y="298" width="40" height="30" as="geometry" />
        </mxCell>
        <mxCell id="YYU_4tO9jYvmmID5z-S9-51" value="" style="sketch=0;pointerEvents=1;shadow=0;dashed=0;html=1;strokeColor=none;fillColor=#505050;labelPosition=center;verticalLabelPosition=bottom;verticalAlign=top;outlineConnect=0;align=center;shape=mxgraph.office.concepts.folder_open;" parent="1" vertex="1">
          <mxGeometry x="-180" y="308" width="10" height="10" as="geometry" />
        </mxCell>
        <mxCell id="YYU_4tO9jYvmmID5z-S9-52" value="" style="verticalLabelPosition=bottom;html=1;verticalAlign=top;align=center;strokeColor=none;fillColor=#00BEF2;shape=mxgraph.azure.cloud_services_configuration_file;pointerEvents=1;" parent="1" vertex="1">
          <mxGeometry x="-180" y="328" width="10" height="10" as="geometry" />
        </mxCell>
        <mxCell id="YYU_4tO9jYvmmID5z-S9-53" value="&lt;span style=&quot;font-size: 10px;&quot;&gt;.config&lt;/span&gt;" style="text;html=1;align=center;verticalAlign=middle;resizable=0;points=[];autosize=1;strokeColor=none;fillColor=none;" parent="1" vertex="1">
          <mxGeometry x="-173" y="318" width="50" height="30" as="geometry" />
        </mxCell>
        <mxCell id="YYU_4tO9jYvmmID5z-S9-54" value="&lt;span style=&quot;font-size: 10px;&quot;&gt;.github/workflows&lt;/span&gt;" style="text;html=1;align=center;verticalAlign=middle;resizable=0;points=[];autosize=1;strokeColor=none;fillColor=none;" parent="1" vertex="1">
          <mxGeometry x="-173" y="278" width="100" height="30" as="geometry" />
        </mxCell>
        <mxCell id="YYU_4tO9jYvmmID5z-S9-55" value="" style="sketch=0;pointerEvents=1;shadow=0;dashed=0;html=1;strokeColor=none;fillColor=#505050;labelPosition=center;verticalLabelPosition=bottom;verticalAlign=top;outlineConnect=0;align=center;shape=mxgraph.office.concepts.folder_open;" parent="1" vertex="1">
          <mxGeometry x="-180" y="288" width="10" height="10" as="geometry" />
        </mxCell>
        <mxCell id="YYU_4tO9jYvmmID5z-S9-73" value="" style="ellipse;whiteSpace=wrap;html=1;aspect=fixed;" parent="1" vertex="1">
          <mxGeometry x="-25" y="293" width="30" height="30" as="geometry" />
        </mxCell>
        <mxCell id="YYU_4tO9jYvmmID5z-S9-67" value="" style="shape=image;html=1;verticalAlign=top;verticalLabelPosition=bottom;labelBackgroundColor=#ffffff;imageAspect=0;aspect=fixed;image=https://cdn4.iconfinder.com/data/icons/ionicons/512/icon-social-github-128.png;imageBorder=none;" parent="1" vertex="1">
          <mxGeometry x="-27" y="290" width="35" height="35" as="geometry" />
        </mxCell>
        <mxCell id="YYU_4tO9jYvmmID5z-S9-79" value="&lt;b&gt;&lt;font style=&quot;font-size: 10px;&quot;&gt;GitHub Actions&lt;/font&gt;&lt;/b&gt;" style="text;html=1;align=center;verticalAlign=middle;resizable=0;points=[];autosize=1;strokeColor=none;fillColor=none;" parent="1" vertex="1">
          <mxGeometry x="-59.5" y="318" width="100" height="30" as="geometry" />
        </mxCell>
      </root>
    </mxGraphModel>
  </diagram>
  <diagram id="x4LImrRfT8pMsuV-8eGC" name="PÃ¡gina-2">
    <mxGraphModel dx="1745" dy="473" grid="1" gridSize="10" guides="1" tooltips="1" connect="1" arrows="1" fold="1" page="1" pageScale="1" pageWidth="827" pageHeight="1169" math="0" shadow="0">
      <root>
        <mxCell id="0" />
        <mxCell id="1" parent="0" />
        <mxCell id="JcqBY4K7kMBT8FmmKkmt-83" value="" style="rounded=0;whiteSpace=wrap;html=1;dashed=1;" vertex="1" parent="1">
          <mxGeometry x="420" y="35" width="310" height="395" as="geometry" />
        </mxCell>
        <mxCell id="JcqBY4K7kMBT8FmmKkmt-80" value="" style="rounded=0;whiteSpace=wrap;html=1;dashed=1;" vertex="1" parent="1">
          <mxGeometry x="250" y="35" width="160" height="395" as="geometry" />
        </mxCell>
        <mxCell id="JcqBY4K7kMBT8FmmKkmt-77" value="" style="rounded=0;whiteSpace=wrap;html=1;dashed=1;" vertex="1" parent="1">
          <mxGeometry x="-120" y="35" width="360" height="395" as="geometry" />
        </mxCell>
        <mxCell id="JcqBY4K7kMBT8FmmKkmt-75" value="" style="rounded=0;whiteSpace=wrap;html=1;dashed=1;" vertex="1" parent="1">
          <mxGeometry x="-290" y="35" width="150" height="395" as="geometry" />
        </mxCell>
        <mxCell id="JcqBY4K7kMBT8FmmKkmt-9" style="edgeStyle=orthogonalEdgeStyle;rounded=0;orthogonalLoop=1;jettySize=auto;html=1;entryX=0.5;entryY=0;entryDx=0;entryDy=0;fillColor=#e1d5e7;strokeColor=#9673a6;" edge="1" parent="1" source="JcqBY4K7kMBT8FmmKkmt-1" target="JcqBY4K7kMBT8FmmKkmt-3">
          <mxGeometry relative="1" as="geometry" />
        </mxCell>
        <mxCell id="JcqBY4K7kMBT8FmmKkmt-1" value="&lt;font style=&quot;font-size: 10px;&quot;&gt;Git Checkout no RepositÃ³rio&lt;/font&gt;" style="whiteSpace=wrap;html=1;fillColor=#e1d5e7;strokeColor=#9673a6;" vertex="1" parent="1">
          <mxGeometry x="-260" y="50" width="90" height="50" as="geometry" />
        </mxCell>
        <mxCell id="JcqBY4K7kMBT8FmmKkmt-10" style="edgeStyle=orthogonalEdgeStyle;rounded=0;orthogonalLoop=1;jettySize=auto;html=1;fillColor=#e1d5e7;strokeColor=#9673a6;" edge="1" parent="1" source="JcqBY4K7kMBT8FmmKkmt-3" target="JcqBY4K7kMBT8FmmKkmt-4">
          <mxGeometry relative="1" as="geometry" />
        </mxCell>
        <mxCell id="JcqBY4K7kMBT8FmmKkmt-3" value="&lt;font style=&quot;font-size: 10px;&quot;&gt;Setup para variÃ¡veis da Pipeline&lt;/font&gt;" style="whiteSpace=wrap;html=1;fillColor=#e1d5e7;strokeColor=#9673a6;" vertex="1" parent="1">
          <mxGeometry x="-260" y="120" width="90" height="50" as="geometry" />
        </mxCell>
        <mxCell id="JcqBY4K7kMBT8FmmKkmt-11" style="edgeStyle=orthogonalEdgeStyle;rounded=0;orthogonalLoop=1;jettySize=auto;html=1;entryX=0.5;entryY=0;entryDx=0;entryDy=0;fillColor=#e1d5e7;strokeColor=#9673a6;" edge="1" parent="1" source="JcqBY4K7kMBT8FmmKkmt-4" target="JcqBY4K7kMBT8FmmKkmt-5">
          <mxGeometry relative="1" as="geometry" />
        </mxCell>
        <mxCell id="JcqBY4K7kMBT8FmmKkmt-4" value="&lt;font style=&quot;font-size: 10px;&quot;&gt;Setup Node&lt;/font&gt;" style="whiteSpace=wrap;html=1;fillColor=#e1d5e7;strokeColor=#9673a6;" vertex="1" parent="1">
          <mxGeometry x="-260" y="190" width="90" height="30" as="geometry" />
        </mxCell>
        <mxCell id="JcqBY4K7kMBT8FmmKkmt-12" style="edgeStyle=orthogonalEdgeStyle;rounded=0;orthogonalLoop=1;jettySize=auto;html=1;entryX=0.5;entryY=0;entryDx=0;entryDy=0;fillColor=#e1d5e7;strokeColor=#9673a6;" edge="1" parent="1" source="JcqBY4K7kMBT8FmmKkmt-5" target="JcqBY4K7kMBT8FmmKkmt-6">
          <mxGeometry relative="1" as="geometry" />
        </mxCell>
        <mxCell id="JcqBY4K7kMBT8FmmKkmt-5" value="&lt;font style=&quot;font-size: 10px;&quot;&gt;InstalaÃ§Ã£o de dependÃªncias da AplicaÃ§Ã£o&lt;/font&gt;" style="whiteSpace=wrap;html=1;fillColor=#e1d5e7;strokeColor=#9673a6;" vertex="1" parent="1">
          <mxGeometry x="-260" y="240" width="90" height="60" as="geometry" />
        </mxCell>
        <mxCell id="JcqBY4K7kMBT8FmmKkmt-13" style="edgeStyle=orthogonalEdgeStyle;rounded=0;orthogonalLoop=1;jettySize=auto;html=1;entryX=0.5;entryY=0;entryDx=0;entryDy=0;fillColor=#e1d5e7;strokeColor=#9673a6;" edge="1" parent="1" source="JcqBY4K7kMBT8FmmKkmt-6" target="JcqBY4K7kMBT8FmmKkmt-7">
          <mxGeometry relative="1" as="geometry" />
        </mxCell>
        <mxCell id="JcqBY4K7kMBT8FmmKkmt-6" value="&lt;font style=&quot;font-size: 10px;&quot;&gt;ExecuÃ§Ã£o de Testes&lt;/font&gt;" style="whiteSpace=wrap;html=1;fillColor=#e1d5e7;strokeColor=#9673a6;" vertex="1" parent="1">
          <mxGeometry x="-260" y="320" width="90" height="40" as="geometry" />
        </mxCell>
        <mxCell id="JcqBY4K7kMBT8FmmKkmt-27" style="edgeStyle=orthogonalEdgeStyle;rounded=0;orthogonalLoop=1;jettySize=auto;html=1;entryX=0;entryY=0.5;entryDx=0;entryDy=0;" edge="1" parent="1" source="JcqBY4K7kMBT8FmmKkmt-7" target="JcqBY4K7kMBT8FmmKkmt-24">
          <mxGeometry relative="1" as="geometry" />
        </mxCell>
        <mxCell id="JcqBY4K7kMBT8FmmKkmt-7" value="&lt;font style=&quot;font-size: 10px;&quot;&gt;Build do Projeto&lt;/font&gt;" style="whiteSpace=wrap;html=1;fillColor=#e1d5e7;strokeColor=#9673a6;" vertex="1" parent="1">
          <mxGeometry x="-260" y="380" width="90" height="40" as="geometry" />
        </mxCell>
        <mxCell id="JcqBY4K7kMBT8FmmKkmt-44" value="" style="edgeStyle=orthogonalEdgeStyle;rounded=0;orthogonalLoop=1;jettySize=auto;html=1;fillColor=#dae8fc;strokeColor=#6c8ebf;" edge="1" parent="1" source="JcqBY4K7kMBT8FmmKkmt-15" target="JcqBY4K7kMBT8FmmKkmt-34">
          <mxGeometry relative="1" as="geometry" />
        </mxCell>
        <mxCell id="JcqBY4K7kMBT8FmmKkmt-15" value="&lt;font style=&quot;font-size: 10px;&quot;&gt;Checkout no RepositÃ³rio&lt;/font&gt;" style="whiteSpace=wrap;html=1;fillColor=#dae8fc;strokeColor=#6c8ebf;" vertex="1" parent="1">
          <mxGeometry x="-100" y="50" width="90" height="50" as="geometry" />
        </mxCell>
        <mxCell id="JcqBY4K7kMBT8FmmKkmt-32" value="" style="edgeStyle=orthogonalEdgeStyle;rounded=0;orthogonalLoop=1;jettySize=auto;html=1;" edge="1" parent="1" source="JcqBY4K7kMBT8FmmKkmt-17" target="JcqBY4K7kMBT8FmmKkmt-15">
          <mxGeometry relative="1" as="geometry" />
        </mxCell>
        <mxCell id="JcqBY4K7kMBT8FmmKkmt-17" value="&lt;font style=&quot;font-size: 10px;&quot;&gt;Realiza o upload do artefato&lt;/font&gt;" style="whiteSpace=wrap;html=1;fillColor=#f5f5f5;strokeColor=#666666;fontColor=#333333;" vertex="1" parent="1">
          <mxGeometry x="-100" y="120" width="90" height="50" as="geometry" />
        </mxCell>
        <mxCell id="JcqBY4K7kMBT8FmmKkmt-31" value="" style="edgeStyle=orthogonalEdgeStyle;rounded=0;orthogonalLoop=1;jettySize=auto;html=1;fillColor=#f5f5f5;strokeColor=#666666;" edge="1" parent="1" source="JcqBY4K7kMBT8FmmKkmt-19" target="JcqBY4K7kMBT8FmmKkmt-17">
          <mxGeometry relative="1" as="geometry" />
        </mxCell>
        <mxCell id="JcqBY4K7kMBT8FmmKkmt-19" value="&lt;font style=&quot;font-size: 10px;&quot;&gt;Verifica arquivo .de build&lt;/font&gt;" style="whiteSpace=wrap;html=1;fillColor=#f5f5f5;strokeColor=#666666;fontColor=#333333;" vertex="1" parent="1">
          <mxGeometry x="-100" y="190" width="90" height="30" as="geometry" />
        </mxCell>
        <mxCell id="JcqBY4K7kMBT8FmmKkmt-30" value="" style="edgeStyle=orthogonalEdgeStyle;rounded=0;orthogonalLoop=1;jettySize=auto;html=1;" edge="1" parent="1" source="JcqBY4K7kMBT8FmmKkmt-21" target="JcqBY4K7kMBT8FmmKkmt-19">
          <mxGeometry relative="1" as="geometry" />
        </mxCell>
        <mxCell id="JcqBY4K7kMBT8FmmKkmt-21" value="&lt;font style=&quot;font-size: 10px;&quot;&gt;Etapa de Deploy no ambiente de desenvolvimento&lt;/font&gt;" style="whiteSpace=wrap;html=1;fillColor=#fff2cc;strokeColor=#d6b656;" vertex="1" parent="1">
          <mxGeometry x="-105" y="240" width="100" height="60" as="geometry" />
        </mxCell>
        <mxCell id="JcqBY4K7kMBT8FmmKkmt-29" style="edgeStyle=orthogonalEdgeStyle;rounded=0;orthogonalLoop=1;jettySize=auto;html=1;fillColor=#fff2cc;strokeColor=#d6b656;" edge="1" parent="1" source="JcqBY4K7kMBT8FmmKkmt-23" target="JcqBY4K7kMBT8FmmKkmt-21">
          <mxGeometry relative="1" as="geometry" />
        </mxCell>
        <mxCell id="JcqBY4K7kMBT8FmmKkmt-23" value="&lt;font style=&quot;font-size: 10px;&quot;&gt;Assume Role&lt;/font&gt;" style="whiteSpace=wrap;html=1;fillColor=#fff2cc;strokeColor=#d6b656;" vertex="1" parent="1">
          <mxGeometry x="-100" y="320" width="90" height="40" as="geometry" />
        </mxCell>
        <mxCell id="JcqBY4K7kMBT8FmmKkmt-28" style="edgeStyle=orthogonalEdgeStyle;rounded=0;orthogonalLoop=1;jettySize=auto;html=1;entryX=0.5;entryY=1;entryDx=0;entryDy=0;fillColor=#fff2cc;strokeColor=#d6b656;" edge="1" parent="1" source="JcqBY4K7kMBT8FmmKkmt-24" target="JcqBY4K7kMBT8FmmKkmt-23">
          <mxGeometry relative="1" as="geometry" />
        </mxCell>
        <mxCell id="JcqBY4K7kMBT8FmmKkmt-24" value="&lt;font style=&quot;font-size: 10px;&quot;&gt;InstalaÃ§Ã£o de AWS CLI&lt;/font&gt;" style="whiteSpace=wrap;html=1;fillColor=#fff2cc;strokeColor=#d6b656;" vertex="1" parent="1">
          <mxGeometry x="-100" y="380" width="90" height="40" as="geometry" />
        </mxCell>
        <mxCell id="JcqBY4K7kMBT8FmmKkmt-33" style="edgeStyle=orthogonalEdgeStyle;rounded=0;orthogonalLoop=1;jettySize=auto;html=1;entryX=0.5;entryY=0;entryDx=0;entryDy=0;fillColor=#dae8fc;strokeColor=#6c8ebf;" edge="1" parent="1" source="JcqBY4K7kMBT8FmmKkmt-34" target="JcqBY4K7kMBT8FmmKkmt-36">
          <mxGeometry relative="1" as="geometry" />
        </mxCell>
        <mxCell id="JcqBY4K7kMBT8FmmKkmt-34" value="&lt;font style=&quot;font-size: 10px;&quot;&gt;Procura as tags existentes&lt;/font&gt;" style="whiteSpace=wrap;html=1;fillColor=#dae8fc;strokeColor=#6c8ebf;" vertex="1" parent="1">
          <mxGeometry x="50" y="55" width="90" height="40" as="geometry" />
        </mxCell>
        <mxCell id="JcqBY4K7kMBT8FmmKkmt-35" style="edgeStyle=orthogonalEdgeStyle;rounded=0;orthogonalLoop=1;jettySize=auto;html=1;fillColor=#dae8fc;strokeColor=#6c8ebf;" edge="1" parent="1" source="JcqBY4K7kMBT8FmmKkmt-36" target="JcqBY4K7kMBT8FmmKkmt-38">
          <mxGeometry relative="1" as="geometry" />
        </mxCell>
        <mxCell id="JcqBY4K7kMBT8FmmKkmt-36" value="&lt;font style=&quot;font-size: 10px;&quot;&gt;Cria uma nova&amp;nbsp;&lt;/font&gt;&lt;div&gt;&lt;font style=&quot;font-size: 10px;&quot;&gt;tag no repositÃ³rio&lt;/font&gt;&lt;/div&gt;" style="whiteSpace=wrap;html=1;fillColor=#dae8fc;strokeColor=#6c8ebf;" vertex="1" parent="1">
          <mxGeometry x="50" y="112" width="90" height="50" as="geometry" />
        </mxCell>
        <mxCell id="JcqBY4K7kMBT8FmmKkmt-58" style="edgeStyle=orthogonalEdgeStyle;rounded=0;orthogonalLoop=1;jettySize=auto;html=1;" edge="1" parent="1" source="JcqBY4K7kMBT8FmmKkmt-38" target="JcqBY4K7kMBT8FmmKkmt-45">
          <mxGeometry relative="1" as="geometry" />
        </mxCell>
        <mxCell id="JcqBY4K7kMBT8FmmKkmt-38" value="&lt;font style=&quot;font-size: 10px;&quot;&gt;Cria uma release com base na Tag Criada&lt;/font&gt;" style="whiteSpace=wrap;html=1;fillColor=#dae8fc;strokeColor=#6c8ebf;" vertex="1" parent="1">
          <mxGeometry x="50" y="180" width="90" height="50" as="geometry" />
        </mxCell>
        <mxCell id="JcqBY4K7kMBT8FmmKkmt-61" style="edgeStyle=orthogonalEdgeStyle;rounded=0;orthogonalLoop=1;jettySize=auto;html=1;entryX=0.5;entryY=0;entryDx=0;entryDy=0;fillColor=#ffe6cc;strokeColor=#d79b00;" edge="1" parent="1" source="JcqBY4K7kMBT8FmmKkmt-45" target="JcqBY4K7kMBT8FmmKkmt-60">
          <mxGeometry relative="1" as="geometry" />
        </mxCell>
        <mxCell id="JcqBY4K7kMBT8FmmKkmt-65" style="edgeStyle=orthogonalEdgeStyle;rounded=0;orthogonalLoop=1;jettySize=auto;html=1;fillColor=#d0cee2;strokeColor=#56517e;" edge="1" parent="1" source="JcqBY4K7kMBT8FmmKkmt-45" target="JcqBY4K7kMBT8FmmKkmt-64">
          <mxGeometry relative="1" as="geometry" />
        </mxCell>
        <mxCell id="JcqBY4K7kMBT8FmmKkmt-45" value="&lt;font style=&quot;font-size: 9px;&quot;&gt;Houve falha em alguma etapa?&lt;/font&gt;" style="triangle;whiteSpace=wrap;html=1;fillColor=#ffe6cc;strokeColor=#d79b00;" vertex="1" parent="1">
          <mxGeometry x="65" y="260" width="60" height="80" as="geometry" />
        </mxCell>
        <mxCell id="JcqBY4K7kMBT8FmmKkmt-47" style="edgeStyle=orthogonalEdgeStyle;rounded=0;orthogonalLoop=1;jettySize=auto;html=1;entryX=0.5;entryY=0;entryDx=0;entryDy=0;fillColor=#e1d5e7;strokeColor=#9673a6;" edge="1" parent="1" source="JcqBY4K7kMBT8FmmKkmt-48" target="JcqBY4K7kMBT8FmmKkmt-50">
          <mxGeometry relative="1" as="geometry" />
        </mxCell>
        <mxCell id="JcqBY4K7kMBT8FmmKkmt-48" value="&lt;font style=&quot;font-size: 10px;&quot;&gt;Git Checkout no RepositÃ³rio&lt;/font&gt;" style="whiteSpace=wrap;html=1;fillColor=#e1d5e7;strokeColor=#9673a6;" vertex="1" parent="1">
          <mxGeometry x="290" y="55" width="90" height="50" as="geometry" />
        </mxCell>
        <mxCell id="JcqBY4K7kMBT8FmmKkmt-49" style="edgeStyle=orthogonalEdgeStyle;rounded=0;orthogonalLoop=1;jettySize=auto;html=1;fillColor=#e1d5e7;strokeColor=#9673a6;" edge="1" parent="1" source="JcqBY4K7kMBT8FmmKkmt-50" target="JcqBY4K7kMBT8FmmKkmt-52">
          <mxGeometry relative="1" as="geometry" />
        </mxCell>
        <mxCell id="JcqBY4K7kMBT8FmmKkmt-50" value="&lt;font style=&quot;font-size: 10px;&quot;&gt;VerificaÃ§Ã£o da aprovaÃ§Ã£o&lt;/font&gt;" style="whiteSpace=wrap;html=1;fillColor=#e1d5e7;strokeColor=#9673a6;" vertex="1" parent="1">
          <mxGeometry x="290" y="125" width="90" height="50" as="geometry" />
        </mxCell>
        <mxCell id="JcqBY4K7kMBT8FmmKkmt-82" style="edgeStyle=orthogonalEdgeStyle;rounded=0;orthogonalLoop=1;jettySize=auto;html=1;entryX=0;entryY=0.5;entryDx=0;entryDy=0;" edge="1" parent="1" source="JcqBY4K7kMBT8FmmKkmt-52" target="JcqBY4K7kMBT8FmmKkmt-54">
          <mxGeometry relative="1" as="geometry" />
        </mxCell>
        <mxCell id="JcqBY4K7kMBT8FmmKkmt-52" value="&lt;span style=&quot;font-size: 10px;&quot;&gt;Setup para variÃ¡veis da Pipeline&lt;/span&gt;" style="whiteSpace=wrap;html=1;fillColor=#bac8d3;strokeColor=#23445d;" vertex="1" parent="1">
          <mxGeometry x="290" y="190" width="90" height="45" as="geometry" />
        </mxCell>
        <mxCell id="JcqBY4K7kMBT8FmmKkmt-53" style="edgeStyle=orthogonalEdgeStyle;rounded=0;orthogonalLoop=1;jettySize=auto;html=1;entryX=0.5;entryY=0;entryDx=0;entryDy=0;fillColor=#d5e8d4;strokeColor=#82b366;" edge="1" parent="1" source="JcqBY4K7kMBT8FmmKkmt-54" target="JcqBY4K7kMBT8FmmKkmt-56">
          <mxGeometry relative="1" as="geometry" />
        </mxCell>
        <mxCell id="JcqBY4K7kMBT8FmmKkmt-54" value="&lt;span style=&quot;font-size: 10px;&quot;&gt;InstalaÃ§Ã£o de AWS CLI&lt;/span&gt;" style="whiteSpace=wrap;html=1;fillColor=#d5e8d4;strokeColor=#82b366;" vertex="1" parent="1">
          <mxGeometry x="490" y="55" width="90" height="45" as="geometry" />
        </mxCell>
        <mxCell id="JcqBY4K7kMBT8FmmKkmt-55" style="edgeStyle=orthogonalEdgeStyle;rounded=0;orthogonalLoop=1;jettySize=auto;html=1;entryX=0.5;entryY=0;entryDx=0;entryDy=0;fillColor=#d5e8d4;strokeColor=#82b366;" edge="1" parent="1" source="JcqBY4K7kMBT8FmmKkmt-56" target="JcqBY4K7kMBT8FmmKkmt-57">
          <mxGeometry relative="1" as="geometry" />
        </mxCell>
        <mxCell id="JcqBY4K7kMBT8FmmKkmt-56" value="&lt;span style=&quot;font-size: 10px;&quot;&gt;Assume Role&lt;/span&gt;" style="whiteSpace=wrap;html=1;fillColor=#d5e8d4;strokeColor=#82b366;" vertex="1" parent="1">
          <mxGeometry x="490" y="125" width="90" height="40" as="geometry" />
        </mxCell>
        <mxCell id="JcqBY4K7kMBT8FmmKkmt-71" style="edgeStyle=orthogonalEdgeStyle;rounded=0;orthogonalLoop=1;jettySize=auto;html=1;entryX=0;entryY=0.5;entryDx=0;entryDy=0;" edge="1" parent="1" source="JcqBY4K7kMBT8FmmKkmt-57" target="JcqBY4K7kMBT8FmmKkmt-68">
          <mxGeometry relative="1" as="geometry">
            <mxPoint x="440" y="410" as="targetPoint" />
          </mxGeometry>
        </mxCell>
        <mxCell id="JcqBY4K7kMBT8FmmKkmt-57" value="&lt;span style=&quot;font-size: 10px;&quot;&gt;Etapa de Deploy no ambiente produtivo&lt;/span&gt;" style="whiteSpace=wrap;html=1;fillColor=#d5e8d4;strokeColor=#82b366;" vertex="1" parent="1">
          <mxGeometry x="490" y="185" width="90" height="40" as="geometry" />
        </mxCell>
        <mxCell id="JcqBY4K7kMBT8FmmKkmt-60" value="&lt;font style=&quot;font-size: 10px;&quot;&gt;NotificaÃ§Ã£o via email do usuÃ¡rio&lt;/font&gt;" style="whiteSpace=wrap;html=1;fillColor=#ffe6cc;strokeColor=#d79b00;" vertex="1" parent="1">
          <mxGeometry x="50" y="380" width="90" height="40" as="geometry" />
        </mxCell>
        <mxCell id="JcqBY4K7kMBT8FmmKkmt-62" value="SIM" style="text;html=1;align=center;verticalAlign=middle;resizable=0;points=[];autosize=1;strokeColor=none;fillColor=none;" vertex="1" parent="1">
          <mxGeometry x="90" y="330" width="40" height="30" as="geometry" />
        </mxCell>
        <mxCell id="JcqBY4K7kMBT8FmmKkmt-63" value="NÃO" style="text;html=1;align=center;verticalAlign=middle;resizable=0;points=[];autosize=1;strokeColor=none;fillColor=none;" vertex="1" parent="1">
          <mxGeometry x="120" y="270" width="50" height="30" as="geometry" />
        </mxCell>
        <mxCell id="JcqBY4K7kMBT8FmmKkmt-66" style="edgeStyle=orthogonalEdgeStyle;rounded=0;orthogonalLoop=1;jettySize=auto;html=1;entryX=0;entryY=0.5;entryDx=0;entryDy=0;" edge="1" parent="1" source="JcqBY4K7kMBT8FmmKkmt-64" target="JcqBY4K7kMBT8FmmKkmt-48">
          <mxGeometry relative="1" as="geometry" />
        </mxCell>
        <mxCell id="JcqBY4K7kMBT8FmmKkmt-64" value="&lt;font style=&quot;font-size: 9px;&quot;&gt;AprovaÃ§Ã£o dos mantainers para deploy produtivo&lt;/font&gt;" style="triangle;whiteSpace=wrap;html=1;fillColor=#d0cee2;strokeColor=#56517e;" vertex="1" parent="1">
          <mxGeometry x="170" y="260" width="60" height="80" as="geometry" />
        </mxCell>
        <mxCell id="JcqBY4K7kMBT8FmmKkmt-67" style="edgeStyle=orthogonalEdgeStyle;rounded=0;orthogonalLoop=1;jettySize=auto;html=1;entryX=0.5;entryY=1;entryDx=0;entryDy=0;fillColor=#ffe6cc;strokeColor=#d79b00;exitX=0.5;exitY=0;exitDx=0;exitDy=0;" edge="1" parent="1" source="JcqBY4K7kMBT8FmmKkmt-68" target="JcqBY4K7kMBT8FmmKkmt-69">
          <mxGeometry relative="1" as="geometry">
            <Array as="points">
              <mxPoint x="590" y="320" />
              <mxPoint x="645" y="320" />
            </Array>
          </mxGeometry>
        </mxCell>
        <mxCell id="JcqBY4K7kMBT8FmmKkmt-74" style="edgeStyle=orthogonalEdgeStyle;rounded=0;orthogonalLoop=1;jettySize=auto;html=1;entryX=0;entryY=0.5;entryDx=0;entryDy=0;fillColor=#ffe6cc;strokeColor=#d79b00;" edge="1" parent="1" source="JcqBY4K7kMBT8FmmKkmt-68" target="JcqBY4K7kMBT8FmmKkmt-73">
          <mxGeometry relative="1" as="geometry" />
        </mxCell>
        <mxCell id="JcqBY4K7kMBT8FmmKkmt-68" value="&lt;font style=&quot;font-size: 9px;&quot;&gt;Houve falha em alguma etapa?&lt;/font&gt;" style="triangle;whiteSpace=wrap;html=1;fillColor=#ffe6cc;strokeColor=#d79b00;" vertex="1" parent="1">
          <mxGeometry x="560" y="310" width="60" height="80" as="geometry" />
        </mxCell>
        <mxCell id="JcqBY4K7kMBT8FmmKkmt-69" value="&lt;font style=&quot;font-size: 10px;&quot;&gt;NotificaÃ§Ã£o via email do usuÃ¡rio&lt;/font&gt;" style="whiteSpace=wrap;html=1;fillColor=#ffe6cc;strokeColor=#d79b00;" vertex="1" parent="1">
          <mxGeometry x="600" y="240" width="90" height="40" as="geometry" />
        </mxCell>
        <mxCell id="JcqBY4K7kMBT8FmmKkmt-70" value="SIM" style="text;html=1;align=center;verticalAlign=middle;resizable=0;points=[];autosize=1;strokeColor=none;fillColor=none;" vertex="1" parent="1">
          <mxGeometry x="580" y="295" width="40" height="30" as="geometry" />
        </mxCell>
        <mxCell id="JcqBY4K7kMBT8FmmKkmt-72" value="NÃO" style="text;html=1;align=center;verticalAlign=middle;resizable=0;points=[];autosize=1;strokeColor=none;fillColor=none;" vertex="1" parent="1">
          <mxGeometry x="620" y="325" width="50" height="30" as="geometry" />
        </mxCell>
        <mxCell id="JcqBY4K7kMBT8FmmKkmt-73" value="Fim" style="ellipse;whiteSpace=wrap;html=1;aspect=fixed;fillColor=#ffe6cc;strokeColor=#d79b00;" vertex="1" parent="1">
          <mxGeometry x="670" y="330" width="40" height="40" as="geometry" />
        </mxCell>
        <mxCell id="JcqBY4K7kMBT8FmmKkmt-76" value="&lt;b&gt;CI&lt;/b&gt;" style="text;html=1;align=center;verticalAlign=middle;resizable=0;points=[];autosize=1;strokeColor=none;fillColor=default;" vertex="1" parent="1">
          <mxGeometry x="-235" y="3" width="40" height="30" as="geometry" />
        </mxCell>
        <mxCell id="JcqBY4K7kMBT8FmmKkmt-78" value="&lt;b&gt;CD&lt;/b&gt;" style="text;html=1;align=center;verticalAlign=middle;resizable=0;points=[];autosize=1;strokeColor=none;fillColor=default;" vertex="1" parent="1">
          <mxGeometry x="40" y="3" width="40" height="30" as="geometry" />
        </mxCell>
        <mxCell id="JcqBY4K7kMBT8FmmKkmt-81" value="&lt;b&gt;CI&lt;/b&gt;" style="text;html=1;align=center;verticalAlign=middle;resizable=0;points=[];autosize=1;strokeColor=none;fillColor=default;" vertex="1" parent="1">
          <mxGeometry x="305" y="3" width="40" height="30" as="geometry" />
        </mxCell>
        <mxCell id="JcqBY4K7kMBT8FmmKkmt-84" value="&lt;b&gt;CD&lt;/b&gt;" style="text;html=1;align=center;verticalAlign=middle;resizable=0;points=[];autosize=1;strokeColor=none;fillColor=default;" vertex="1" parent="1">
          <mxGeometry x="555" y="3" width="40" height="30" as="geometry" />
        </mxCell>
      </root>
    </mxGraphModel>
  </diagram>
</mxfile>
